<svg xmlns="http://www.w3.org/2000/svg" xmlns:xlink="http://www.w3.org/1999/xlink" style="margin: auto; background: rgba(255, 255, 255, 0); display: block;" width="200px" height="200px" viewBox="0 0 100 100" preserveAspectRatio="xMidYMid">
<g transform="rotate(0 50 50)">
  <rect x="44" y="1" rx="6" ry="7.8" width="12" height="26" fill="#000000">
    <animate attributeName="opacity" values="1;0" keyTimes="0;1" dur="0.48780487804878053s" begin="-0.43360433604336046s" repeatCount="indefinite"></animate>
  </rect>
</g><g transform="rotate(40 50 50)">
  <rect x="44" y="1" rx="6" ry="7.8" width="12" height="26" fill="#000000">
    <animate attributeName="opacity" values="1;0" keyTimes="0;1" dur="0.48780487804878053s" begin="-0.3794037940379404s" repeatCount="indefinite"></animate>
  </rect>
</g><g transform="rotate(80 50 50)">
  <rect x="44" y="1" rx="6" ry="7.8" width="12" height="26" fill="#000000">
    <animate attributeName="opacity" values="1;0" keyTimes="0;1" dur="0.48780487804878053s" begin="-0.3252032520325203s" repeatCount="indefinite"></animate>
  </rect>
</g><g transform="rotate(120 50 50)">
  <rect x="44" y="1" rx="6" ry="7.8" width="12" height="26" fill="#000000">
    <animate attributeName="opacity" values="1;0" keyTimes="0;1" dur="0.48780487804878053s" begin="-0.2710027100271003s" repeatCount="indefinite"></animate>
  </rect>
</g><g transform="rotate(160 50 50)">
  <rect x="44" y="1" rx="6" ry="7.8" width="12" height="26" fill="#000000">
    <animate attributeName="opacity" values="1;0" keyTimes="0;1" dur="0.48780487804878053s" begin="-0.21680216802168023s" repeatCount="indefinite"></animate>
  </rect>
</g><g transform="rotate(200 50 50)">
  <rect x="44" y="1" rx="6" ry="7.8" width="12" height="26" fill="#000000">
    <animate attributeName="opacity" values="1;0" keyTimes="0;1" dur="0.48780487804878053s" begin="-0.16260162601626016s" repeatCount="indefinite"></animate>
  </rect>
</g><g transform="rotate(240 50 50)">
  <rect x="44" y="1" rx="6" ry="7.8" width="12" height="26" fill="#000000">
    <animate attributeName="opacity" values="1;0" keyTimes="0;1" dur="0.48780487804878053s" begin="-0.10840108401084012s" repeatCount="indefinite"></animate>
  </rect>
</g><g transform="rotate(280 50 50)">
  <rect x="44" y="1" rx="6" ry="7.8" width="12" height="26" fill="#000000">
    <animate attributeName="opacity" values="1;0" keyTimes="0;1" dur="0.48780487804878053s" begin="-0.05420054200542006s" repeatCount="indefinite"></animate>
  </rect>
</g><g transform="rotate(320 50 50)">
  <rect x="44" y="1" rx="6" ry="7.8" width="12" height="26" fill="#000000">
    <animate attributeName="opacity" values="1;0" keyTimes="0;1" dur="0.48780487804878053s" begin="0s" repeatCount="indefinite"></animate>
  </rect>
</g>
</svg>